<svg version="1.2" xmlns="http://www.w3.org/2000/svg" viewBox="0 0 279 207" width="311" height="231">
	<title>LOGO LIANE + PM-ai</title>
	<style>
		.s0 { fill: #ffffff } 
		.s1 { fill: #000000 } 
		.s2 { fill: #000000;stroke: #000000;stroke-width: 5 } 
		.s3 { fill: none;stroke: #000000;stroke-width: 5 } 
		.s4 { fill: #000000;stroke: #000000;stroke-width: .5 } 
	</style>
	<g id="_Artboards_">
		<path id="Artboard 1" class="s0" d="m-1365-204.3h841.9v595.3h-841.9z"/>
	</g>
	<g id="Capa 1">
		<path id="&lt;Compound Path&gt;" fill-rule="evenodd" class="s1" d="m-1166.4 84.9c3.7-17.4 17-32.7 34-38.5 25.4-8.8 21.4 16 11.5 30.9-8 12.3-0.4 17.6 12.5 8.2 5.6-4.1 16.8-18.1 22.6-16.1 3.9 1.3 3.1 6.2 3.4 9.6 7.3-4.2 16.5-13.9 22.2-9.3 1.9 1.5 1.5 6.7 3.6 9.9 2.8 4.1 5.3 1.7 8.5-0.2l1.3-8.9c0.7-3.2 0.6-4.3 2.7-8.8 5.9-13.3 28.4-12.4 17.2 7.6-4.2 7.4-17.4 12.7-7 15.8 5.1 1.5 9 2 14.1 2 3.2 0 10.2-0.2 17.4-1.5 11.3-1.9 23.4-4.6 23.9-0.8 0.1 8-43.7 10.1-51.7 8.4-5.7-1.3-10.2-2.1-13.4-7.2-2.8 1.2-4.3 2.2-7 3-10.3 2.9-13-11.1-14.8-11.8-8.4-3.3-26.1 31-24.5 2.2-2.9-0.2-17.5 20.1-31.5 18.5-5.4-0.4-7.9-4.2-9.1-8.2-5.9 4.1-12.2 9.1-19.2 10.7-9.4 2.2-16.1-3.1-17.3-12.2-3.7 5.6-21.8 10.4-18.4-5.6 0.5-2.6 10.1-22.7 8-23.8-2.1-1-48.6 46.6-67.4 39.3-25.5-10 34.2-116.1 50.5-129.1 3.4-2.7 8.3-7 10.6-3.3 1.8 3.1-5.2 7.3-7.9 10.5-14.3 12.5-58.9 88.8-51.6 112.4 4.1 13.1 54.3-34.1 63.4-36.2 4.7-1.1 10.2 1.2 9.9 6.6-0.3 5.8-11.2 29.1-6.1 26 3.1-2 7.1-3.3 9.6-0.1zm19.2-20.4c-9.9 9.9-13.5 21.7-7.5 26.4 4.1 3 8.8 0.4 13.4-2.6 2.9-1.9 10.1-4.9 10.2-8.6 0-4 4.2-10.5 6.1-13.8 15.3-23.9-12.3-11.3-22.2-1.4zm113.6 2.3c6.2-11.6-5.4-6.8-7 6.6 1.9-0.8 5.9-4.1 7-6.6z"/>
		<path id="&lt;Path&gt;" class="s1" d="m-1153.6 22.4c0.6 3.2-2 5.1-4.9 4.5-2.6-0.5-4.7-1.3-6.1-3.7 0.9-7.6 10.4-4.7 11-0.8z"/>
		<path id="&lt;Compound Path&gt;" fill-rule="evenodd" class="s1" d="m-1074.7 148.2h-1.7v-2.4c-0.5-0.1-1.5-0.3-2.8-0.3-3.6 0-6 2.1-6 6.1 0 4.1 2 6.4 6.1 6.4 0.9 0 1.8-0.1 2.5-0.3l0.1-2.5h1.6v3.7c-0.9 0.3-2.9 0.6-4.3 0.6-4.9 0-8-2.5-8-7.6 0-4.2 2.5-7.9 8.1-7.9 1.6 0 3.4 0.4 4.4 0.8zm7.4 11.3c-3 0-5.4-2.6-5.4-5.8 0-3.2 2.4-5.8 5.4-5.8 2.9 0 5.3 2.6 5.3 5.8 0 3.2-2.4 5.8-5.3 5.8zm3.5-5.8c0-2.4-1.6-4.3-3.5-4.3-2 0-3.5 1.9-3.5 4.3 0 2.4 1.5 4.3 3.5 4.3 1.9 0 3.5-1.9 3.5-4.3zm3.5-5.5h3.5c0 2-0.1 4-0.1 6.5 0 1.6 0.3 3.3 2.4 3.3 3.2 0 3.3-3.5 3.3-5v-3.5h-1.7v-1.3h3.5l-0.1 9.7h1.5v1.3h-3.2c0-0.4 0-1 0-1.3l0.2-1.1c-0.5 1.3-1.9 2.7-3.8 2.7-3.1 0-3.8-2-3.8-4.5 0-2 0-3.8 0.1-5.5h-1.8zm21.8 9.7h1.4c0-1.7 0.1-3.5 0.1-5.3 0-1-0.1-3.2-2.5-3.2-1.6 0-3.3 1-3.3 4v4.5h1.6v1.4h-4.8v-1.4h1.4l0.1-8.3h-1.8v-1.4h3.5c0 0.5 0 1.1 0 1.4l-0.2 1.1c0.5-1.7 2.3-2.7 4-2.7 3 0 3.7 2 3.7 4.1 0 1.9-0.1 4.1-0.1 5.8h1.7v1.4h-4.8zm14.6-6.7h-1.6l-0.1-1.5c-0.4-0.4-1.4-0.4-1.9-0.4-1.1 0-2.5 0.3-2.5 1.7 0 1.2 1 1.5 2.6 1.8 2.8 0.5 4 1.3 4 3.1 0 2-1.3 3.6-4.5 3.6-1.2 0-3.1-0.3-3.8-0.7v-2.8h1.5l0.1 1.6c0.7 0.3 1.8 0.5 2.5 0.5 1.2 0 2.6-0.5 2.6-1.8 0-1.1-1.2-1.5-2.4-1.8-2.9-0.6-4.4-1.1-4.4-3.3 0-1.7 1.2-3.3 4.3-3.3 1 0 2.7 0.3 3.5 0.7zm4.5 2.6c0.1 2.3 1 4.2 4.2 4.2 1.2 0 2.4-0.4 3.3-0.9l-0.1 1.5c-0.8 0.4-2.5 0.8-3.6 0.8-3.5 0-5.6-1.9-5.6-5.7 0-3.3 1.7-5.8 5.1-5.8 4.3 0 4.7 3.9 4.7 5.9zm6.2-1.4c0-1.7-1.1-3.2-2.9-3.2-1.9 0-3.2 1.4-3.3 3.2zm5.5-8.3h-2.1v-1.4h3.9l-0.1 15.1h1.7v1.3h-5.1v-1.3h1.6zm10.4 15.3c-2.9 0-5.3-2.5-5.3-5.7 0-3.2 2.4-5.8 5.3-5.8 3 0 5.4 2.6 5.4 5.8 0 3.2-2.4 5.7-5.4 5.7zm3.5-5.7c0-2.4-1.5-4.3-3.5-4.3-1.9 0-3.5 1.9-3.5 4.3 0 2.3 1.6 4.3 3.5 4.3 2 0 3.5-2 3.5-4.3zm5.5-4.2h-1.9v-1.3h3.7v0.6c0 0.6-0.2 1.9-0.3 2.8h0.1c0.4-1.6 1-3.6 3.7-3.6 0.2 0 1 0.1 1.1 0.1l-0.1 1.6c-0.3-0.1-0.8-0.2-1.2-0.2-2.3 0-3.3 2.3-3.3 4.2l-0.1 4.1h1.8v1.4h-5.1v-1.4h1.5z"/>
		<path id="&lt;Compound Path&gt;" fill-rule="evenodd" class="s1" d="m-1211.6 116.5h5.8c3.1 0 6.4 0.5 6.4 4.5 0 2.9-2 4.4-4.1 4.7 0.6 0 1.4 0.6 2.2 2l1.5 2.5c1.1 1.8 1.3 2.1 2.3 2.1h0.7v1.6h-1c-1.8 0-2.3-0.2-3.2-1.7l-1.7-2.8c-1.5-2.7-1.9-3.2-3.5-3.2h-1.3l-0.1 6.1h2v1.6h-6v-1.6h1.9l0.1-14.2h-2zm4.1 8.1h2c2.2 0 4-1 4-3.5 0-2.5-1.9-3.1-4.1-3.1h-1.9zm13.9-6.5h-1.9v-1.6h11.7v4h-1.8v-2.4h-5.8l-0.1 6.1h5.5v1.6h-5.5v6.5h6l0.2-2.7h1.8l-0.1 4.3h-11.9v-1.6h1.8zm14.4 0h-2v-1.5h6v1.5h-1.9l-0.1 14.3h2v1.6h-6v-1.6h1.9zm8.2 0h-2.3v-1.6h4.1l9.5 12.7c0.3 0.4 0.6 0.9 0.8 1.3h0.1l0.1-12.4h-2.2v-1.6h5.9v1.6h-1.9l-0.1 15.8h-1.8l-9.8-13.1q-0.4-0.5-0.7-1l-0.1 12.5h2.2v1.6h-5.8v-1.6h1.9zm18.3 11.5h2.1v2.3c0.8 0.5 2.3 0.7 3.4 0.7 2.5 0 4.1-1.2 4.1-3.3 0-4.6-9.5-1.8-9.5-8.1 0-2.1 1.2-4.9 6.4-4.9 1.3 0 3.6 0.3 4.7 0.8v3.5h-2v-2.2c-0.6-0.2-2.1-0.4-2.9-0.4-1.8 0-3.9 0.7-3.9 3 0 4.4 9.5 1.6 9.5 8 0 3.9-3.3 5.3-6.6 5.3-2.9 0-4.3-0.7-5.3-0.9zm16.2-11.4h-2v-1.6h6v1.6h-1.9v6.3h9l0.1-6.3h-2v-1.6h6v1.6h-1.9l-0.1 14.2h2v1.6h-6v-1.6h1.9v-6.3h-9l-0.1 6.3h2v1.6h-6v-1.6h1.9zm16.5 14.3h1.6l6.5-15.8h2.2l5.9 15.8h1.7v1.5h-5.9v-1.5h1.8l-1.8-5.3h-6.3l-2.1 5.3h2.1v1.5h-5.7zm11.4-6.8l-2-5.8c-0.2-0.6-0.3-0.9-0.4-1.2-0.1 0.3-0.2 0.6-0.4 1.2l-2.3 5.8zm21.3 8c-1 0.4-3.3 0.7-5 0.7-5.7 0-9.2-2.9-9.2-8.9 0-4.8 2.8-9.1 9.2-9.1 2.3 0 4.5 0.6 5.3 0.9v4h-1.9v-2.6c-0.6-0.3-1.9-0.6-3.5-0.6-4.2 0-6.9 2.5-6.9 7.2 0 4.7 2.5 7.4 7.2 7.4 0.6 0 2-0.1 2.9-0.4v-4.2h-2.1v-1.6h6v1.6h-2zm5.5-15.4h-2v-1.6h11.7v4.1h-1.8v-2.5h-5.8v6.1h5.4v1.6h-5.4l-0.1 6.5h6.1l0.1-2.7h1.8l-0.1 4.3h-11.9v-1.6h1.9zm14.2 0h-2.3v-1.5h4.2l9.4 12.7c0.3 0.4 0.6 0.9 0.9 1.3l0.1-12.5h-2.2v-1.5h5.9v1.5h-1.9l-0.1 15.9h-1.7l-9.8-13.1q-0.4-0.5-0.7-1.1h-0.1l-0.1 12.6h2.2v1.6h-5.7v-1.6h1.8zm24.7-1.6h6v1.6h-1.8l-0.1 11c-0.1 5.1-1.7 7.3-5.9 9.3l-0.6-1.5c3.1-1.5 4.3-4.3 4.3-7.7l0.1-11.1h-2zm16.2-0.3c5.5 0 8.2 3.9 8.2 8.7 0 5.3-2.9 9.3-8.2 9.3-5.5 0-8.2-4-8.2-8.7 0-5.4 2.9-9.3 8.2-9.3zm0 16.3c4.2 0 5.9-3.5 5.9-7.3 0-3.8-1.7-7.3-5.9-7.3-4.2 0-5.9 3.5-5.9 7.3 0 3.8 1.7 7.3 5.9 7.3zm12.5-14.4h-2v-1.6h6v1.6h-1.9v6.3h9l0.1-6.3h-2v-1.6h6v1.6h-1.9l-0.1 14.2h2v1.6h-6v-1.6h1.9v-6.3h-9l-0.1 6.3h2v1.6h-6v-1.6h1.9zm25.7-1.8c5.5 0 8.2 3.9 8.2 8.6 0 5.4-2.9 9.3-8.2 9.3-5.5 0-8.2-3.9-8.2-8.7 0-5.3 2.9-9.2 8.2-9.2zm0 16.2c4.2 0 5.9-3.5 5.9-7.3 0-3.8-1.7-7.3-5.9-7.3-4.2 0-5.9 3.5-5.9 7.3 0 3.8 1.7 7.3 5.9 7.3z"/>
	</g>
	<g id="Capa 1">
		<path id="&lt;Path&gt;" class="s1" d="m213.6 160.8c-11.3 0-20.3-9.1-20.3-20.2 0-11.2 9-20.3 20.3-20.3 11.2 0 20.3 9.1 20.3 20.3 0 11.1-9.1 20.2-20.3 20.2z"/>
		<path id="&lt;Compound Path&gt;" fill-rule="evenodd" class="s1" d="m-223.8 104.1c3.4-15.9 15.6-29.9 31.1-35.3 23.3-8 20.6 15.7 11.6 29.4-1.7 2.5-1.9 2.1-3.9 4.1-1.3 11.4 9.2 6 14.2 2.3 5.2-3.8 15.4-16.5 20.7-14.7 3.6 1.1 2.9 5.6 3.2 8.8 6.6-3.9 15.1-12.7 20.2-8.5 1.8 1.4 1.4 6.1 3.4 9 2.5 3.8 4.8 1.6 7.8-0.1l1.1-8.2c0.7-2.9 0.6-3.9 2.4-8 5.5-12.2 24.3-12.3 14 6-3.6 5.7-14.1 12.5-4.6 15.4 4.7 1.4 8.3 1.8 12.9 1.8 3 0 9.3-0.2 15.9-1.3 10.3-1.8 21.4-4.3 21.9-0.8 0.4 7.4-39.8 9.3-47.3 7.6-5.2-1.1-9.4-1.8-12.2-6.5-2.6 1.1-3.9 2-6.5 2.7-9.4 2.6-12-9.8-13.5-10.7-1.5-0.9-9.2 6.1-13.7 8.5-10.8 8.8-8.4-3.7-8.7-6.6-2.7-0.1-16 18.4-28.8 17-5-0.4-7.2-3.8-8.4-7.5-5.3 3.7-11.1 8.3-17.5 9.8-8.6 2-14.7-2.9-15.8-11.2-3.4 5.1-19.9 9.5-16.9-5.1 0.5-2.4 9.3-20.8 7.4-21.8-1.9-0.9-44.5 42.7-61.7 35.9-23.3-9.1 31.3-106.2 46.2-118 3.1-2.5 7.6-6.5 9.7-3 1.7 2.8-4.8 6.6-7.2 9.6-13.1 11.4-53.9 81.1-47.2 102.7 3.8 12 49.6-31.1 57.9-33.1 4.4-1 9.4 1.2 9.1 6-0.2 5.4-10.2 26.7-5.5 23.8 2.8-1.7 6.5-3 8.7 0zm18.8-17.9c-3.1 4-13.4 18.3-8 22.6 3.8 2.7 8 1.2 12.2-1.6 2.6-1.8 8.4-4.8 8.5-8.2 0-3.7 3.8-9.4 5.6-12.5 14-21.8-11.4-8.2-18.3-0.3zm102.2 1.3c5.7-10.6-4.4-6.2-5.9 6 1.7-0.6 4.9-3.7 5.9-6z"/>
		<path id="&lt;Path&gt;" class="s1" d="m-212 46.9c0.5 2.9-1.9 4.6-4.5 4.1-2.5-0.5-4.4-1.1-5.7-3.4 0.9-6.9 9.6-4.3 10.2-0.7z"/>
		<path id="&lt;Compound Path&gt;" fill-rule="evenodd" class="s1" d="m-134.5 157.9h-1.4v-1.9c-0.4-0.2-1.2-0.3-2.2-0.3-2.9 0-4.9 1.7-4.9 4.9 0 3.3 1.7 5.2 4.9 5.2 0.8 0 1.5-0.1 2.1-0.3v-2h1.4l-0.1 2.9c-0.7 0.4-2.3 0.5-3.5 0.5-3.9 0-6.4-1.9-6.4-6.1 0-3.4 2.1-6.3 6.6-6.3 1.2 0 2.6 0.3 3.5 0.6zm5.9 9.1c-2.3 0-4.3-2.1-4.3-4.6 0-2.6 2-4.7 4.3-4.7 2.4 0 4.3 2.1 4.3 4.7 0 2.5-1.9 4.6-4.3 4.6zm2.8-4.6c0-2-1.2-3.5-2.8-3.5-1.5 0-2.8 1.5-2.8 3.5 0 1.9 1.3 3.4 2.8 3.4 1.6 0 2.8-1.5 2.8-3.4zm2.9-4.5h2.8c0 1.6-0.1 3.2-0.1 5.3 0 1.3 0.3 2.6 2 2.6 2.6 0 2.6-2.8 2.6-4v-2.8h-1.4v-1.1h2.8v7.8h1.2v1.1h-2.6c0-0.4 0-0.8 0-1.1l0.2-0.9h-0.1c-0.3 1.1-1.4 2.2-3 2.2-2.5 0-3.1-1.6-3.1-3.6 0-1.6 0.1-3 0.1-4.4h-1.4zm17.5 7.8h1.1c0-1.4 0.1-2.8 0.1-4.3 0-0.8 0-2.5-2-2.5-1.2 0-2.6 0.7-2.6 3.1l-0.1 3.7h1.3v1.1h-3.8v-1.1h1.1l0.1-6.7h-1.4v-1.1h2.8c0 0.4 0 0.8-0.1 1.1l-0.1 0.9c0.4-1.4 1.8-2.2 3.2-2.2 2.4 0 3 1.7 3 3.3 0 1.5 0 3.3 0 4.7h1.3v1.1h-3.9zm11.8-5.4h-1.3l-0.1-1.2c-0.3-0.3-1.1-0.3-1.5-0.3-0.9 0-2.1 0.3-2.1 1.3 0 1 0.9 1.3 2.2 1.5 2.2 0.4 3.2 1.1 3.2 2.5 0 1.6-1.1 2.9-3.6 2.9-1 0-2.5-0.3-3.1-0.6v-2.2h1.2l0.1 1.3c0.5 0.2 1.4 0.4 2 0.4 0.9 0 2.1-0.4 2.1-1.5 0-0.9-1-1.2-1.9-1.4-2.4-0.5-3.6-0.9-3.6-2.7 0-1.4 1-2.6 3.5-2.6 0.8 0 2.1 0.2 2.8 0.5zm3.6 2.1c0.1 1.8 0.9 3.4 3.4 3.4 0.9 0 1.9-0.3 2.6-0.7v1.2c-0.7 0.3-2 0.6-2.9 0.6-2.8 0-4.6-1.5-4.6-4.6 0-2.6 1.5-4.6 4.1-4.6 3.6 0 3.9 3.1 3.9 4.7zm5-1.1c0-1.4-0.9-2.6-2.4-2.6-1.5 0-2.5 1.2-2.6 2.6zm4.4-6.7h-1.7v-1.1h3.1l-0.1 12.1h1.4v1.1h-4v-1.1h1.2zm8.4 12.4c-2.4 0-4.3-2.1-4.3-4.7 0-2.5 1.9-4.6 4.3-4.6 2.4 0 4.3 2.1 4.3 4.6 0 2.6-1.9 4.7-4.3 4.7zm2.8-4.7c0-1.9-1.3-3.4-2.8-3.4-1.6 0-2.8 1.5-2.8 3.4 0 2 1.2 3.5 2.8 3.5 1.5 0 2.8-1.5 2.8-3.5zm4.4-3.3h-1.5v-1.1h2.9v0.5c0 0.5-0.1 1.5-0.2 2.3h0.1c0.3-1.3 0.8-2.9 3-2.9 0.1 0 0.8 0 0.9 0.1l-0.1 1.3c-0.3-0.1-0.7-0.2-1-0.2-1.8 0-2.6 1.8-2.7 3.4v3.3h1.5v1.1h-4.2v-1.1h1.3z"/>
		<path id="&lt;Compound Path&gt;" fill-rule="evenodd" class="s1" d="m-262.6 129.5h5.1c2.8 0 5.6 0.4 5.6 3.9 0 2.6-1.7 4-3.6 4.2 0.6 0 1.3 0.5 2 1.8l1.3 2.2c1 1.6 1.1 1.9 2 1.9h0.7v1.3h-0.9c-1.6 0-2.1-0.1-2.9-1.4l-1.5-2.6c-1.3-2.3-1.7-2.8-3-2.8h-1.2l-0.1 5.5h1.8v1.3h-5.3v-1.3h1.6l0.1-12.7h-1.7zm3.6 7.2h1.8c1.9 0 3.4-0.8 3.4-3 0-2.3-1.6-2.8-3.6-2.8h-1.6zm12.3-5.8h-1.7v-1.3h10.4v3.5h-1.7v-2.2h-5.1v5.4h4.8v1.4h-4.8l-0.1 5.8h5.4l0.1-2.4h1.6l-0.1 3.8h-10.5v-1.4h1.6zm12.7 0h-1.7v-1.3h5.3v1.3h-1.7l-0.1 12.7h1.8v1.3h-5.3v-1.3h1.6zm7.3 0h-2v-1.4h3.6l8.4 11.2c0.3 0.4 0.5 0.8 0.7 1.2h0.1v-11h-1.9v-1.4h5.2v1.4h-1.6l-0.1 13.9h-1.6l-8.7-11.5q-0.3-0.5-0.6-1l-0.1 11.2h1.9v1.3h-5.1v-1.3h1.7zm16.2 10.1h1.8v2.1c0.7 0.4 2.1 0.5 3.1 0.5 2.1 0 3.6-1 3.6-2.8 0-4.1-8.4-1.7-8.4-7.2 0-1.9 1.1-4.4 5.7-4.4 1.1 0 3.1 0.3 4.1 0.7v3.1h-1.7v-1.9c-0.6-0.2-1.9-0.4-2.6-0.4-1.7 0-3.5 0.6-3.5 2.7 0 3.9 8.4 1.4 8.4 7.1 0 3.4-2.9 4.6-5.8 4.6-2.6 0-3.8-0.6-4.7-0.8zm14.3-10.1h-1.7v-1.3h5.3v1.3h-1.7v5.7h8v-5.7h-1.8v-1.3h5.4v1.3h-1.7l-0.1 12.7h1.8v1.3h-5.4v-1.3h1.7l0.1-5.6h-8l-0.1 5.6h1.8v1.3h-5.3v-1.3h1.6zm14.7 12.6h1.4l5.7-14h2l5.2 14h1.5v1.3h-5.2v-1.3h1.6l-1.7-4.7h-5.5l-1.8 4.7h1.8v1.3h-5zm10.1-6l-1.9-5.1c-0.2-0.5-0.2-0.8-0.3-1.1-0.1 0.3-0.2 0.6-0.3 1.1l-2.1 5.1zm18.9 7.1c-0.9 0.4-3 0.6-4.4 0.6-5.1 0-8.2-2.6-8.2-7.8 0-4.4 2.4-8.1 8.2-8.1 2 0 3.9 0.5 4.6 0.8v3.5h-1.6v-2.3c-0.5-0.3-1.8-0.5-3.2-0.5-3.7 0-6 2.2-6 6.3 0 4.2 2.1 6.6 6.3 6.6 0.6 0 1.8-0.1 2.6-0.3v-3.8h-1.9v-1.4h5.3v1.4h-1.7zm4.8-13.6h-1.7v-1.4h10.4v3.6h-1.7v-2.2h-5.1v5.4h4.8v1.4h-4.8l-0.1 5.8h5.4l0.1-2.4h1.6l-0.1 3.8h-10.5v-1.4h1.6zm12.6 0h-2v-1.4h3.7l8.3 11.3c0.3 0.3 0.5 0.7 0.8 1.1l0.1-11h-1.9v-1.4h5.2v1.4h-1.7l-0.1 14h-1.5l-8.7-11.6q-0.4-0.4-0.6-0.9h-0.1l-0.1 11.1h2v1.4h-5.1v-1.4h1.7zm21.8-1.4h5.3v1.4h-1.6l-0.1 9.8c-0.1 4.4-1.5 6.4-5.2 8.2l-0.6-1.4c2.8-1.3 3.9-3.7 3.9-6.8l0.1-9.8h-1.8zm14.3-0.3c4.8 0 7.3 3.5 7.3 7.7 0 4.8-2.6 8.3-7.3 8.3-4.8 0-7.2-3.5-7.2-7.7 0-4.8 2.5-8.3 7.2-8.3zm0 14.5c3.7 0 5.2-3.1 5.2-6.5 0-3.4-1.5-6.5-5.2-6.5-3.7 0-5.2 3.1-5.2 6.5 0 3.4 1.5 6.5 5.2 6.5zm11.1-12.8h-1.8v-1.4h5.3v1.4h-1.7v5.6h8v-5.6h-1.7v-1.4h5.3v1.4h-1.7l-0.1 12.6h1.8v1.4h-5.3v-1.4h1.7v-5.6h-8v5.6h1.7v1.4h-5.3v-1.4h1.7zm22.7-1.6c4.8 0 7.3 3.5 7.3 7.6 0 4.8-2.6 8.3-7.3 8.3-4.8 0-7.2-3.5-7.2-7.7 0-4.7 2.5-8.2 7.2-8.2zm0 14.4c3.7 0 5.2-3.1 5.2-6.5 0-3.4-1.5-6.4-5.2-6.4-3.7 0-5.2 3-5.2 6.4 0 3.4 1.5 6.5 5.2 6.5z"/>
		<path id="&lt;Compound Path&gt;" fill-rule="evenodd" class="s1" d="m46.8 55.6c0 0.8-0.7 1.5-1.5 1.5h-14.6c0.8 2.6 2.9 3.8 5.6 3.8 1.8 0 3.1-0.6 4-1.3 0.4-0.4 0.9-0.4 1.3-0.2l3.1 1.9c0.6 0.4 0.8 1.2 0.3 1.8-1.9 2.1-5 3.5-8.7 3.5-7.5 0-12.5-4.7-12.5-11.6 0-6.6 5.1-11.7 11.5-11.7 6.2 0 11.7 4 11.5 12.3zm-6.5-2.7c-0.5-2.7-2.3-3.9-4.8-3.9-2.2 0-4.1 1.4-4.7 3.9zm10-15.5c0-1.1 0.9-2 2-2h3.1c1.1 0 2 0.9 2 2v26.7c0 1.1-0.9 2-2 2h-3.1c-1.1 0-2-0.9-2-2z"/>
		<path id="&lt;Compound Path&gt;" fill-rule="evenodd" class="s1" d="m64.4 93.3c0 9.6-5.5 19.1-16.9 19.1-4 0-7.1-1.4-9.5-3.6v14c0 1.4-1.1 2.6-2.5 2.6h-9.1c-1.4 0-2.6-1.2-2.6-2.6v-45.2c0-1.4 1.2-2.5 2.6-2.5h9.8c1 0 1.8 0.8 1.8 1.9v0.9c2.3-2.3 5.4-3.7 9.5-3.7 11.4 0 16.9 9.5 16.9 19.1zm-14.2 0c0-3.3-2.6-5.9-5.9-5.9-3.2 0-5.8 2.6-5.8 5.9 0 3.2 2.6 5.8 5.8 5.8 3.3 0 5.9-2.6 5.9-5.8zm75.9-4.6v20.2c0 1.4-1.2 2.6-2.6 2.6h-9.1c-1.4 0-2.6-1.2-2.6-2.6v-15.7c0-2.9-1.3-5.1-4.5-5.1-3.2 0-4.6 2.2-4.6 5.1v15.7c0 1.4-1.1 2.6-2.5 2.6h-9.1c-1.5 0-2.6-1.2-2.6-2.6v-31.3c0-1.4 1.1-2.5 2.6-2.5h9.7c1.1 0 1.9 0.8 1.9 1.9v1.8c2.1-2.6 5.3-4.6 10-4.6 10.9 0 13.4 9.2 13.4 14.5zm29.1 8.7c0.5-0.6 1.6-0.8 2.3-0.3l8.8 5.3c0.9 0.6 1.2 2 0.5 2.8-3.7 4.6-9.4 7.2-16 7.2-11.4 0-20.1-7.8-20.1-19.1 0-11.3 8.7-19.1 20.1-19.1 6.6 0 12.3 2.7 16 7.1 0.7 0.9 0.4 2.2-0.5 2.8l-8.8 5.4c-0.7 0.4-1.8 0.3-2.3-0.4-1.1-1-2.5-1.7-4.4-1.7-3.5 0-5.9 2.5-5.9 5.9 0 3.4 2.4 5.8 5.9 5.8 1.9 0 3.3-0.6 4.4-1.7zm53.6-8.7v20.2c0 1.4-1.1 2.6-2.5 2.6h-9.2c-1.3 0-2.5-1.2-2.5-2.6v-15.7c0-2.9-1.3-5.1-4.5-5.1-3.2 0-4.6 2.2-4.6 5.1v15.7c0 1.4-1.2 2.6-2.5 2.6h-9.1c-1.5 0-2.6-1.2-2.6-2.6v-45.1c0-1.5 1.1-2.6 2.6-2.6h9.1c1.3 0 2.5 1.1 2.5 2.6v15c2.1-2.6 5.2-4.6 10-4.6 10.9 0 13.3 9.2 13.3 14.5zm43.5 5.5c-0.1 1.5-1.1 2.6-2.6 2.6h-22.2c1 3.1 3.4 4.9 7.2 4.9 2.7 0 4.7-1 5.9-2 0.6-0.6 1.5-0.6 2.2-0.2l6.2 3.7c1 0.6 1.3 2 0.5 2.8-3.1 3.5-8.2 6.4-14.8 6.4-13.1 0-21.2-8.2-21.2-19.1 0-11.1 8.3-19.1 19.3-19.1 10.8 0 19.7 6.5 19.5 20zm-13.3-4.4c-0.7-3.2-2.5-5-5.8-5-3.1 0-5 2-5.8 5z"/>
		<path id="&lt;Compound Path&gt;" class="s1" d="m68.8 78.2c0-1.7 1.3-3 3-3h8.2c1.7 0 3 1.3 3 3v30.4c0 1.6-1.3 3-3 3h-8.2c-1.7 0-3-1.4-3-3zm7.1 51c-4.1 0-7.4-3.3-7.4-7.4 0-4.1 3.3-7.4 7.4-7.4 4.1 0 7.4 3.3 7.4 7.4 0 4.1-3.3 7.4-7.4 7.4z"/>
		<path id="&lt;Path&gt;" class="s0" d="m213.5 151.5c-6.3 0-10.4-4.9-10.4-10.9 0-6 4.1-11 10.4-11 6.5 0 10.5 5 10.5 11 0 6-4 10.9-10.5 10.9z"/>
		<path id="&lt;Path&gt;" class="s1" d="m188 130.1h-5.5v14c0 4.4 0.7 7 6 7 0 0 0 0 0.1 0 1.2 0 2.2 0.9 2.2 2.1v5c0 1.1-0.8 1.9-1.8 2-0.7 0.1-1.4 0.1-2.3 0.1-9.9 0-13.8-6.6-13.8-14.6v-15.6h-3.5c-1.4 0-2.7-1.2-2.7-2.7v-3.4c0-1.5 1.3-2.7 2.7-2.7h3.5v-5.4c0-1.5 1.1-2.7 2.7-2.7h4.2c1.5 0 2.7 1.2 2.7 2.7v5.4h5.5c1.5 0 2.8 1.2 2.8 2.7v3.4c0 1.5-1.3 2.7-2.8 2.7z"/>
		<path id="&lt;Path&gt;" class="s1" d="m152.6 124.3c0-1.7 1.3-3 3-3h3.7c1.6 0 3 1.3 3 3v32.5c0 1.6-1.4 3-3 3h-3.7c-1.7 0-3-1.4-3-3z"/>
		<path id="&lt;Path&gt;" class="s1" d="m145.9 135.7v21.4c0 1.5-1.2 2.7-2.6 2.7h-4.3c-1.5 0-2.7-1.2-2.7-2.7v-19.4c0-4.8-2-8-6.5-8-4.5 0-6.8 3.6-6.8 8v19.4c0 1.5-1.2 2.7-2.8 2.7h-4.1c-1.6 0-2.8-1.2-2.8-2.7v-19.4c0-4.8-2-8-6.4-8-4.5 0-6.9 3.6-6.9 8v19.4c0 1.5-1.2 2.7-2.7 2.7h-4.2c-1.5 0-2.7-1.2-2.7-2.7v-33.1c0-1.5 1.2-2.7 2.7-2.7h4.2c1.5 0 2.7 1.2 2.7 2.7v1.4c2-2.9 5.1-5.1 10.2-5.1 5.2 0 8.7 2.5 10.6 6 2.4-3.3 6.3-6 11.7-6 8.9 0 13.4 7.2 13.4 15.4z"/>
		<path id="&lt;Path&gt;" class="s2" d="m205.3 63.2c0-0.9 0.7-1.6 1.6-1.6h38.9c1 0 1.7 0.7 1.7 1.6 0 0.9-0.7 1.7-1.7 1.7h-38.9c-0.9 0-1.6-0.8-1.6-1.7z"/>
		<path id="&lt;Path&gt;" class="s3" d="m196.9 50.3c-6 0-10.9-4.9-10.9-10.9 0-6 4.9-10.8 10.9-10.8 6 0 10.9 4.8 10.9 10.8 0 6-4.9 10.9-10.9 10.9z"/>
		<path id="&lt;Path&gt;" class="s3" d="m229.6 50.3c-6 0-10.8-4.9-10.8-10.9 0-6 4.8-10.8 10.8-10.8 6 0 10.9 4.8 10.9 10.8 0 6-4.9 10.9-10.9 10.9z"/>
		<path id="&lt;Path&gt;" class="s4" d="m201 38.3c-2.5 0-4.5-2-4.5-4.5 0-2.5 2-4.5 4.5-4.5 2.4 0 4.4 2 4.4 4.5 0 2.5-2 4.5-4.4 4.5z"/>
		<path id="&lt;Path&gt;" class="s4" d="m233.7 38.3c-2.5 0-4.5-2-4.5-4.5 0-2.5 2-4.5 4.5-4.5 2.5 0 4.5 2 4.5 4.5 0 2.5-2 4.5-4.5 4.5z"/>
		<path id="&lt;Compound Path&gt;" fill-rule="evenodd" class="s1" d="m213.6 160.8c-11.3 0-20.3-9.1-20.3-20.2 0-11.2 9-20.3 20.3-20.3 11.2 0 20.3 9.1 20.3 20.3 0 11.1-9.1 20.2-20.3 20.2zm-10.5-20.2c0 6 4.1 10.9 10.4 10.9 6.5 0 10.5-4.9 10.5-10.9 0-6-4-11-10.5-11-6.3 0-10.4 5-10.4 11z"/>
		<path id="&lt;Path&gt;" class="s1" d="m-19.3 41h4v100.1h-4z"/>
	</g>
</svg>