<svg version="1.2" xmlns="http://www.w3.org/2000/svg" viewBox="0 0 826 595" width="826" height="595">
	<title>LOGO LIANE + PM AZUL-ai</title>
	<style>
		.s0 { fill: #255fca } 
		.s1 { fill: #ffffff } 
	</style>
	<g id="Capa 1">
		<path id="&lt;Path&gt;" class="s0" d="m91 120.5h644.2v354.4h-644.2z"/>
		<path id="&lt;Compound Path&gt;" fill-rule="evenodd" class="s1" d="m221.1 308.1c3.4-15.9 15.6-29.9 31.1-35.3 23.3-8 20.5 15.7 11.6 29.4-1.7 2.5-2 2.1-3.9 4.1-1.3 11.4 9.2 6 14.2 2.3 5.2-3.8 15.4-16.5 20.7-14.7 3.6 1.1 2.9 5.6 3.2 8.8 6.6-3.9 15.1-12.7 20.2-8.5 1.8 1.4 1.4 6.1 3.4 9 2.5 3.8 4.8 1.6 7.8-0.1l1.1-8.2c0.7-2.9 0.6-3.9 2.4-8 5.5-12.2 24.2-12.3 14 6-3.7 5.7-14.1 12.5-4.6 15.4 4.7 1.4 8.3 1.8 12.9 1.8 3 0 9.3-0.2 15.9-1.3 10.3-1.8 21.4-4.3 21.8-0.8 0.4 7.4-39.7 9.3-47.2 7.6-5.2-1.1-9.4-1.8-12.2-6.5-2.6 1.1-4 2-6.5 2.7-9.4 2.6-12-9.8-13.5-10.7-1.5-0.9-9.3 6.1-13.7 8.5-10.8 8.8-8.4-3.7-8.7-6.6-2.7-0.1-16 18.4-28.8 17-5-0.4-7.2-3.8-8.4-7.5-5.3 3.7-11.1 8.3-17.5 9.8-8.6 2-14.7-2.9-15.8-11.2-3.4 5.1-19.9 9.5-16.9-5.1 0.5-2.4 9.3-20.8 7.4-21.8-1.9-0.9-44.5 42.7-61.7 35.9-23.3-9.1 31.3-106.2 46.2-118 3.1-2.5 7.6-6.5 9.7-3 1.7 2.8-4.8 6.6-7.2 9.6-13.1 11.4-53.9 81.1-47.2 102.7 3.8 12 49.6-31.1 57.9-33.1 4.4-1 9.4 1.2 9.1 6-0.3 5.4-10.2 26.7-5.6 23.8 2.8-1.7 6.5-3 8.8 0zm18.8-17.9c-3.1 4-13.5 18.3-8 22.6 3.7 2.7 8 1.2 12.2-1.6 2.6-1.8 8.4-4.8 8.4-8.2 0.1-3.7 3.9-9.4 5.7-12.5 14-21.8-11.4-8.2-18.3-0.3zm102.2 1.3c5.7-10.6-4.4-6.2-5.9 6 1.7-0.6 4.9-3.7 5.9-6z"/>
		<path id="&lt;Path&gt;" class="s1" d="m232.9 250.9c0.5 2.9-1.9 4.6-4.5 4.1-2.5-0.5-4.4-1.1-5.7-3.4 0.9-6.9 9.5-4.3 10.2-0.7z"/>
		<path id="&lt;Compound Path&gt;" fill-rule="evenodd" class="s1" d="m310.4 361.9h-1.4v-1.9c-0.4-0.2-1.2-0.3-2.2-0.3-3 0-4.9 1.7-4.9 4.9 0 3.3 1.7 5.2 4.9 5.2 0.8 0 1.5-0.1 2-0.3l0.1-2h1.4l-0.1 2.9c-0.7 0.4-2.3 0.5-3.5 0.5-3.9 0-6.4-1.9-6.4-6.1 0-3.4 2.1-6.3 6.6-6.3 1.2 0 2.6 0.3 3.5 0.6zm5.9-0.2c2.7 0 4.3 1.9 4.3 4.4 0 2.8-1.6 4.9-4.3 4.9-2.7 0-4.3-1.9-4.3-4.4 0-2.8 1.6-4.9 4.3-4.9zm0 8.1c1.9 0 2.8-1.5 2.8-3.4 0-2-0.9-3.5-2.8-3.5-1.9 0-2.8 1.5-2.8 3.5 0 1.9 0.9 3.4 2.8 3.4zm5.6-7.9h2.9c0 1.6-0.1 3.2-0.1 5.3 0 1.3 0.3 2.6 2 2.6 2.5 0 2.6-2.8 2.6-4v-2.8h-1.4v-1.1h2.8v7.8h1.2v1.1h-2.6c0-0.4 0-0.8 0-1.1l0.2-0.9h-0.1c-0.4 1.1-1.5 2.2-3 2.2-2.5 0-3.1-1.6-3.1-3.6 0-1.6 0.1-3 0.1-4.4h-1.5zm17.6 7.8h1.1c0-1.4 0.1-2.8 0.1-4.3 0-0.8 0-2.5-2-2.5-1.3 0-2.6 0.7-2.6 3.1l-0.1 3.7h1.3v1.1h-3.8v-1.1h1.1l0.1-6.7h-1.4v-1.1h2.8c0 0.4 0 0.8-0.1 1.1l-0.1 0.9c0.4-1.4 1.8-2.2 3.2-2.2 2.4 0 3 1.7 3 3.3 0 1.5-0.1 3.3-0.1 4.7h1.4v1.1h-3.9zm11.8-5.4h-1.3l-0.1-1.2c-0.3-0.3-1.1-0.3-1.5-0.3-0.9 0-2.1 0.3-2.1 1.3 0 1 0.9 1.3 2.2 1.5 2.2 0.4 3.2 1.1 3.2 2.5 0 1.6-1.1 2.9-3.6 2.9-1 0-2.5-0.3-3.1-0.6l-0.1-2.2h1.3l0.1 1.3c0.5 0.2 1.4 0.4 2 0.4 0.9 0 2-0.4 2-1.5 0-0.9-0.9-1.2-1.8-1.4-2.4-0.5-3.6-0.9-3.6-2.7 0-1.4 1-2.6 3.5-2.6 0.7 0 2.1 0.2 2.8 0.5zm3.6 2.1c0.1 1.8 0.9 3.4 3.4 3.4 0.9 0 1.9-0.3 2.6-0.7v1.2c-0.7 0.3-2 0.6-2.9 0.6-2.8 0-4.6-1.5-4.6-4.6 0-2.6 1.4-4.6 4.1-4.6 3.5 0 3.9 3.1 3.9 4.7zm4.9-1.1c0-1.4-0.8-2.6-2.3-2.6-1.5 0-2.5 1.2-2.6 2.6zm4.4-6.7h-1.7v-1.1h3.1l-0.1 12.1h1.4v1.1h-4.1v-1.1h1.3zm8.4 3.1c2.7 0 4.3 1.9 4.3 4.4 0 2.8-1.6 4.9-4.3 4.9-2.7 0-4.3-1.9-4.3-4.4 0-2.8 1.6-4.9 4.3-4.9zm0 8.1c1.9 0 2.8-1.5 2.8-3.5 0-1.9-0.9-3.4-2.8-3.4-1.9 0-2.8 1.5-2.8 3.4 0 2 0.9 3.5 2.8 3.5zm7.2-6.8h-1.5v-1.1h2.9v0.5c0 0.5-0.1 1.5-0.2 2.3h0.1c0.3-1.3 0.8-2.9 3-2.9 0.1 0 0.8 0 0.9 0.1l-0.2 1.3c-0.2-0.1-0.6-0.2-0.9-0.2-1.8 0-2.6 1.8-2.7 3.4l-0.1 3.3h1.5v1.1h-4.1v-1.1h1.2z"/>
		<path id="&lt;Compound Path&gt;" fill-rule="evenodd" class="s1" d="m182.2 333.5h5.2c2.8 0 5.6 0.4 5.6 3.9 0 2.6-1.8 4-3.6 4.2 0.6 0 1.3 0.5 2 1.8l1.3 2.2c1 1.6 1.1 1.9 2 1.9h0.7v1.3h-0.9c-1.6 0-2.1-0.1-2.9-1.4l-1.5-2.6c-1.3-2.3-1.7-2.8-3-2.8h-1.3v5.5h1.8v1.3h-5.4v-1.3h1.7l0.1-12.7h-1.8zm3.6 7.2h1.9c1.9 0 3.4-0.8 3.4-3 0-2.3-1.6-2.8-3.6-2.8h-1.6zm12.3-5.8h-1.7v-1.3h10.3v3.5h-1.6v-2.2h-5.1v5.4h4.8v1.4h-4.8l-0.1 5.8h5.4l0.1-2.4h1.6l-0.1 3.8h-10.5v-1.4h1.6zm12.7 0h-1.8v-1.3h5.4v1.3h-1.7l-0.1 12.7h1.8v1.3h-5.4v-1.3h1.7zm7.3 0h-2.1v-1.4h3.7l8.4 11.2c0.2 0.4 0.5 0.8 0.7 1.2l0.1-11h-1.9v-1.4h5.2v1.4h-1.6l-0.1 13.9h-1.6l-8.7-11.5q-0.3-0.5-0.6-1l-0.1 11.2h1.9v1.3h-5.1v-1.3h1.7zm16.2 10.1h1.8v2.1c0.7 0.4 2.1 0.5 3 0.5 2.2 0 3.7-1 3.7-2.8 0-4.1-8.4-1.7-8.4-7.2 0-1.9 1-4.4 5.6-4.4 1.2 0 3.2 0.3 4.2 0.7v3.1h-1.7v-1.9c-0.6-0.2-1.9-0.4-2.6-0.4-1.7 0-3.5 0.6-3.5 2.7 0 3.9 8.4 1.4 8.4 7.1 0 3.4-2.9 4.6-5.9 4.6-2.5 0-3.7-0.6-4.6-0.8zm14.3-10.1h-1.7v-1.3h5.3v1.3h-1.7v5.7h7.9l0.1-5.7h-1.8v-1.3h5.4v1.3h-1.7l-0.1 12.7h1.8v1.3h-5.4v-1.3h1.7v-5.6h-7.9l-0.1 5.6h1.8v1.3h-5.3v-1.3h1.6zm14.6 12.6h1.5l5.7-14h2l5.2 14h1.4v1.3h-5.1v-1.3h1.6l-1.7-4.7h-5.5l-1.8 4.7h1.8v1.3h-5.1zm10.2-6l-1.9-5.1c-0.2-0.5-0.2-0.8-0.3-1.1-0.1 0.3-0.2 0.6-0.3 1.1l-2.1 5.1zm18.9 7.1c-0.9 0.4-3 0.6-4.4 0.6-5.1 0-8.3-2.6-8.3-7.8 0-4.4 2.5-8.1 8.2-8.1 2.1 0 4 0.5 4.7 0.8v3.5h-1.6v-2.3c-0.6-0.3-1.8-0.5-3.2-0.5-3.7 0-6 2.2-6 6.3 0 4.2 2.1 6.6 6.3 6.6 0.6 0 1.8-0.1 2.6-0.3v-3.8h-1.9v-1.4h5.3v1.4h-1.7zm4.8-13.6h-1.7v-1.4h10.3v3.6h-1.6v-2.2h-5.1v5.4h4.8v1.4h-4.8l-0.1 5.8h5.3l0.2-2.4h1.6l-0.1 3.8h-10.5v-1.4h1.6zm12.6 0h-2v-1.4h3.7l8.3 11.3c0.3 0.3 0.5 0.7 0.8 1.1l0.1-11h-1.9v-1.4h5.2v1.4h-1.7l-0.1 14h-1.5l-8.7-11.6q-0.4-0.4-0.6-0.9h-0.1l-0.1 11.1h2v1.4h-5.1v-1.4h1.6zm21.9-1.4h5.3v1.4h-1.7v9.8c-0.1 4.4-1.5 6.4-5.2 8.2l-0.6-1.4c2.8-1.3 3.8-3.7 3.9-6.8l0.1-9.8h-1.8zm14.3-0.3c4.8 0 7.3 3.5 7.3 7.7 0 4.8-2.6 8.3-7.3 8.3-4.8 0-7.2-3.5-7.2-7.7 0-4.8 2.5-8.3 7.2-8.3zm0 14.5c3.7 0 5.2-3.1 5.2-6.5 0-3.4-1.5-6.5-5.2-6.5-3.7 0-5.2 3.1-5.2 6.5 0 3.4 1.5 6.5 5.2 6.5zm11.1-12.8h-1.8v-1.4h5.3v1.4h-1.7v5.6h8v-5.6h-1.7v-1.4h5.3v1.4h-1.7l-0.1 12.6h1.8v1.4h-5.3v-1.4h1.6l0.1-5.6h-8v5.6h1.7v1.4h-5.3v-1.4h1.7zm22.7-1.6c4.8 0 7.2 3.5 7.2 7.6 0 4.8-2.5 8.3-7.2 8.3-4.8 0-7.3-3.5-7.3-7.7 0-4.7 2.6-8.2 7.3-8.2zm0 14.4c3.7 0 5.2-3.1 5.2-6.5 0-3.4-1.5-6.4-5.2-6.4-3.7 0-5.2 3-5.2 6.4 0 3.4 1.5 6.5 5.2 6.5z"/>
		<path id="&lt;Compound Path&gt;" fill-rule="evenodd" class="s1" d="m491.7 259.6c0 0.8-0.7 1.5-1.5 1.5h-14.6c0.7 2.6 2.9 3.8 5.6 3.8 1.8 0 3.1-0.6 4-1.3 0.3-0.4 0.9-0.4 1.3-0.2l3.1 1.9c0.6 0.4 0.8 1.2 0.3 1.8-1.9 2.1-5 3.5-8.7 3.5-7.5 0-12.5-4.7-12.5-11.6 0-6.6 5.1-11.7 11.5-11.7 6.2 0 11.7 4 11.5 12.3zm-6.5-2.7c-0.5-2.7-2.3-3.9-4.8-3.9-2.3 0-4.1 1.4-4.8 3.9zm11.7-17.5h4c0.8 0 1.5 0.7 1.5 1.6v27.5c0 0.9-0.7 1.6-1.5 1.6h-4c-0.9 0-1.6-0.7-1.6-1.6v-27.5c0-0.9 0.7-1.6 1.6-1.6z"/>
		<path id="&lt;Compound Path&gt;" fill-rule="evenodd" class="s1" d="m509.3 297.3c0 9.6-5.5 19.1-16.9 19.1-4 0-7.1-1.4-9.5-3.6v14c0 1.4-1.1 2.6-2.5 2.6h-9.1c-1.4 0-2.6-1.2-2.6-2.6v-45.2c0-1.4 1.2-2.5 2.6-2.5h9.8c1 0 1.8 0.8 1.8 1.9v0.9c2.3-2.3 5.4-3.7 9.5-3.7 11.4 0 16.9 9.5 16.9 19.1zm-14.2 0c0-3.4-2.3-5.9-5.9-5.9-3.5 0-5.8 2.5-5.8 5.9 0 3.4 2.3 5.8 5.8 5.8 3.6 0 5.9-2.4 5.9-5.8zm75.9-4.6v20.2c0 1.4-1.2 2.6-2.6 2.6h-9.2c-1.3 0-2.5-1.2-2.5-2.6v-15.7c0-2.9-1.3-5.1-4.5-5.1-3.2 0-4.6 2.2-4.6 5.1v15.7c0 1.4-1.1 2.6-2.5 2.6h-9.1c-1.5 0-2.6-1.2-2.6-2.6v-31.3c0-1.4 1.1-2.5 2.6-2.5h9.7c1 0 1.9 0.8 1.9 1.9v1.8c2.1-2.6 5.3-4.6 10-4.6 10.9 0 13.4 9.2 13.4 14.5zm29.1 8.7c0.5-0.6 1.5-0.8 2.3-0.3l8.8 5.3c0.9 0.6 1.2 2 0.5 2.8-3.7 4.6-9.4 7.2-16 7.2-11.4 0-20.1-7.8-20.1-19.1 0-11.3 8.7-19.1 20.1-19.1 6.6 0 12.3 2.7 16 7.1 0.7 0.9 0.4 2.2-0.5 2.8l-8.8 5.4c-0.8 0.4-1.8 0.3-2.3-0.4-1.1-1-2.6-1.7-4.4-1.7-3.5 0-5.9 2.5-5.9 5.9 0 3.4 2.4 5.8 5.9 5.8 1.8 0 3.3-0.6 4.4-1.7zm53.6-8.7v20.2c0 1.4-1.1 2.6-2.5 2.6h-9.2c-1.3 0-2.5-1.2-2.5-2.6v-15.7c0-2.9-1.4-5.1-4.5-5.1-3.3 0-4.6 2.2-4.6 5.1v15.7c0 1.4-1.2 2.6-2.5 2.6h-9.2c-1.4 0-2.5-1.2-2.5-2.6v-45.1c0-1.5 1.1-2.6 2.5-2.6h9.2c1.3 0 2.5 1.1 2.5 2.6v15c2.1-2.6 5.2-4.6 10-4.6 10.9 0 13.3 9.2 13.3 14.5zm43.5 5.5c-0.1 1.5-1.1 2.6-2.6 2.6h-22.3c1.1 3.1 3.5 4.9 7.3 4.9 2.7 0 4.7-1 5.9-2 0.6-0.6 1.5-0.6 2.2-0.2l6.2 3.7c1 0.6 1.3 2 0.5 2.8-3.1 3.5-8.3 6.4-14.8 6.4-13.1 0-21.2-8.2-21.2-19.1 0-11.1 8.3-19.1 19.3-19.1 10.7 0 19.7 6.5 19.5 20zm-13.3-4.4c-0.7-3.2-2.5-5-5.8-5-3.1 0-5 2-5.8 5z"/>
		<path id="&lt;Path&gt;" class="s1" d="m527.3 325.6c0 4.1-3.4 7.4-7.4 7.4-4.1 0-7.4-3.3-7.4-7.4 0-4.1 3.3-7.4 7.4-7.4 4 0 7.4 3.3 7.4 7.4z"/>
		<path id="&lt;Path&gt;" class="s1" d="m527 281.5v31.3c0 1.4-1.2 2.6-2.6 2.6h-9.1c-1.4 0-2.6-1.2-2.6-2.6v-31.3c0-1.4 1.2-2.6 2.6-2.6h9.1c1.4 0 2.6 1.2 2.6 2.6z"/>
		<path id="&lt;Path&gt;" class="s1" d="m632.9 336.1h-5.5v14.1c0 4.4 0.6 7 6 7 0 0 0 0 0.1 0 1.2 0 2.1 0.9 2.1 2v5c0 1.1-0.7 1.9-1.7 2.1-0.7 0-1.4 0-2.3 0-9.9 0-13.8-6.6-13.8-14.5v-15.7h-3.5c-1.5 0-2.7-1.2-2.7-2.7v-3.4c0-1.5 1.2-2.7 2.7-2.7h3.5v-5.3c0-1.6 1.1-2.8 2.6-2.8h4.3c1.5 0 2.7 1.2 2.7 2.8v5.3h5.5c1.5 0 2.7 1.2 2.7 2.7v3.4c0 1.5-1.2 2.7-2.7 2.7z"/>
		<path id="&lt;Path&gt;" class="s1" d="m597.5 363.1v-33.1c0-1.5 1.2-2.7 2.7-2.7h4.2c1.5 0 2.7 1.2 2.7 2.7v33.1c0 1.5-1.2 2.7-2.7 2.7h-4.2c-1.5 0-2.7-1.2-2.7-2.7z"/>
		<path id="&lt;Path&gt;" class="s1" d="m589.2 341.7v21.4c0 1.5-1.2 2.7-2.7 2.7h-4.2c-1.6 0-2.8-1.2-2.8-2.7v-19.4c0-4.8-1.9-8-6.4-8-4.5 0-6.9 3.6-6.9 8v19.4c0 1.5-1.2 2.7-2.7 2.7h-4.2c-1.5 0-2.7-1.2-2.7-2.7v-19.4c0-4.8-2-8-6.5-8-4.5 0-6.8 3.6-6.8 8v19.4c0 1.5-1.2 2.7-2.8 2.7h-4.1c-1.6 0-2.8-1.2-2.8-2.7v-33.1c0-1.5 1.2-2.7 2.8-2.7h4.1c1.6 0 2.8 1.2 2.8 2.7v1.4c2-2.8 5.1-5 10.2-5 5.2 0 8.6 2.4 10.6 6 2.4-3.4 6.2-6 11.6-6 8.9 0 13.5 7.1 13.5 15.3z"/>
		<path id="&lt;Compound Path&gt;" fill-rule="evenodd" class="s1" d="m658.4 366.8c-11.5 0-20.3-9-20.3-20.2 0-11.3 8.8-20.2 20.3-20.2 11.7 0 20.4 8.9 20.4 20.2 0 11.2-8.7 20.2-20.4 20.2zm-10.4-20.2c0 6 4.1 10.9 10.4 10.9 6.5 0 10.5-4.9 10.5-10.9 0-6-4-11-10.5-11-6.3 0-10.4 5-10.4 11z"/>
		<path id="&lt;Path&gt;" class="s1" d="m425.6 245h4v100.1h-4z"/>
	</g>
</svg>