<svg version="1.2" xmlns="http://www.w3.org/2000/svg" viewBox="0 0 1684 1190" width="1684" height="1190">
	<title>LOGO LIANE-ai</title>
	<style>
		.s0 { fill: #000000 } 
	</style>
	<g id="Capa 1">
		<path id="&lt;Compound Path&gt;" fill-rule="evenodd" class="s0" d="m397.2 577.8c7.4-34.7 34-65.3 67.9-77 50.9-17.6 42.9 32 23.2 61.8-16.2 24.6-0.9 35.2 24.8 16.4 11.3-8.3 33.7-36.1 45.3-32.3 7.8 2.6 6.2 12.5 6.8 19.3 14.6-8.4 33-27.7 44.4-18.6 3.8 3.1 3 13.5 7.2 19.8 5.6 8.2 10.6 3.5 17.1-0.3l2.5-17.8c1.4-6.4 1.3-8.6 5.3-17.7 12-26.7 57-24.7 34.5 15.3-8.4 14.7-34.8 25.3-14 31.5 10.2 3.1 18.1 4.1 28.2 4 6.5 0 20.3-0.5 34.8-2.9 22.5-3.8 46.7-9.3 47.7-1.7 0.3 16-87.3 20.3-103.3 16.8-11.3-2.6-20.5-4.1-26.7-14.4-5.6 2.4-8.6 4.3-14.2 5.9-20.6 5.8-26-22-29.5-23.4-16.9-6.7-52.3 61.9-49 4.2-5.9-0.3-35 40.2-63 37.1-10.8-0.8-15.8-8.3-18.2-16.3-11.7 8.1-24.4 18.2-38.4 21.4-18.8 4.3-32.1-6.3-34.5-24.5-7.5 11.2-43.6 20.8-36.9-11.2 1.1-5.3 20.2-45.5 16-47.6-4.1-2-97.2 93.3-134.8 78.6-51-19.9 68.5-232.2 101-258.2 6.7-5.4 16.6-14.1 21.1-6.6 3.8 6.2-10.3 14.6-15.7 21-28.6 25-117.9 177.6-103.1 224.8 8.2 26.2 108.5-68.2 126.6-72.4 9.6-2.2 20.4 2.4 19.9 13.1-0.6 11.7-22.4 58.3-12.2 52 6.1-3.8 14.2-6.6 19.2-0.1zm38.5-40.8c-19.8 19.8-27 43.4-15.1 52.9 8.2 5.9 17.6 0.8 26.8-5.3 5.7-3.8 20.2-9.8 20.3-17.3 0.1-7.9 8.5-20.8 12.4-27.5 30.5-47.7-24.6-22.5-44.4-2.8zm227.1 4.5c12.4-23.1-10.7-13.4-14 13.2 3.7-1.4 11.8-8.1 14-13.2z"/>
		<path id="&lt;Path&gt;" class="s0" d="m422.9 452.9c1.1 6.3-4.1 10-9.9 8.9-5.3-1.1-9.4-2.5-12.3-7.5 1.9-15 20.8-9.4 22.2-1.4z"/>
		<path id="&lt;Compound Path&gt;" fill-rule="evenodd" class="s0" d="m580.6 704.4h-3.4v-4.7c-1-0.3-3.1-0.7-5.6-0.7-7.2 0-12.1 4.2-12.1 12.3 0 8.1 4.2 12.8 12.3 12.8 1.8 0 3.5-0.3 5-0.7l0.2-4.9h3.3l-0.2 7.2c-1.7 0.8-5.7 1.3-8.6 1.3-9.8 0-15.9-5-15.9-15.3 0-8.3 5.1-15.6 16.2-15.6 3.2 0 6.7 0.7 8.8 1.4zm14.8-0.4c6.7 0 10.6 4.6 10.6 10.9 0 7-3.9 12.1-10.6 12.1-6.7 0-10.7-4.6-10.7-10.9 0-7 4-12.1 10.7-12.1zm0 20.1c4.7 0 7-3.8 7-8.6 0-4.8-2.3-8.6-7-8.6-4.7 0-7 3.8-7 8.6 0 4.8 2.3 8.6 7 8.6zm14-19.6h7c0 4-0.2 8-0.2 13 0 3.2 0.6 6.6 4.9 6.6 6.4 0 6.5-6.9 6.5-10.1v-6.8h-3.5v-2.7h7.1l-0.2 19.3h3.1v2.7h-6.6c0-0.8 0.1-2 0.2-2.6l0.3-2.3h-0.1c-0.9 2.7-3.6 5.4-7.4 5.4-6.3 0-7.8-4-7.8-9 0-4 0.2-7.4 0.2-10.8h-3.5zm43.6 19.3h2.8c0-3.4 0.2-7 0.2-10.5 0-2.2-0.1-6.4-5-6.4-3.1 0-6.6 1.8-6.6 7.8v9.1h3.2v2.7h-9.6v-2.7h2.8l0.2-16.6h-3.6v-2.7h7.1c0 0.8-0.1 2-0.1 2.6l-0.4 2.2h0.1c0.9-3.3 4.5-5.3 7.8-5.3 6.1 0 7.6 4.1 7.6 8.2 0 3.8-0.2 8.2-0.2 11.6h3.2v2.7h-9.5zm29.2-13.2h-3.1l-0.2-3.1c-0.8-0.7-2.9-0.9-3.9-0.9-2.2 0-5.1 0.8-5.1 3.4 0 2.4 2.2 3.1 5.4 3.7 5.6 0.9 7.9 2.6 7.9 6.3 0 3.9-2.6 7-9 7-2.4 0-6.2-0.6-7.5-1.3l-0.2-5.7h3.2l0.1 3.3c1.4 0.7 3.6 1 5 1 2.3 0 5.1-1 5.1-3.7 0-2.1-2.3-2.9-4.6-3.4-5.9-1.3-8.9-2.3-8.9-6.6 0-3.6 2.4-6.6 8.7-6.6 1.8 0 5.2 0.6 6.9 1.3zm9 5.2c0.1 4.5 2.1 8.3 8.4 8.3 2.4 0 4.7-0.7 6.6-1.7l-0.1 3.1c-1.7 0.8-5.1 1.5-7.3 1.5-7 0-11.3-3.8-11.3-11.5 0-6.5 3.5-11.5 10.2-11.5 8.7 0 9.6 7.9 9.6 11.8zm12.3-2.7c0-3.5-2.1-6.4-5.8-6.4-3.8 0-6.3 2.8-6.5 6.4zm10.9-16.7h-4.2v-2.7h7.7l-0.2 30.1h3.5v2.7h-10.1v-2.7h3.1zm20.8 7.6c6.7 0 10.7 4.6 10.7 10.9 0 7-4 12.2-10.7 12.2-6.7 0-10.6-4.7-10.6-11 0-7 3.9-12.1 10.6-12.1zm0 20.2c4.7 0 7-3.9 7-8.7 0-4.8-2.3-8.6-7-8.6-4.7 0-7 3.8-7 8.6 0 4.8 2.3 8.7 7 8.7zm18-17h-3.8v-2.7h7.3v1.2c0 1.3-0.3 3.9-0.5 5.7h0.2c0.8-3.3 2-7.3 7.4-7.3 0.3 0 2.1 0.2 2.2 0.4l-0.3 3.1c-0.6-0.2-1.5-0.3-2.4-0.3-4.5 0-6.5 4.4-6.6 8.3l-0.2 8.3h3.7v2.6h-10.3v-2.6h3.1z"/>
		<path id="&lt;Compound Path&gt;" fill-rule="evenodd" class="s0" d="m306.8 641h11.6c6.3 0 12.8 1 12.8 9 0 5.7-4.1 8.9-8.2 9.3v0.1c1.3 0.1 2.9 1.1 4.5 4l2.9 5c2.2 3.7 2.5 4.3 4.5 4.3h1.6v3.1h-2.1c-3.5 0-4.6-0.4-6.5-3.3l-3.3-5.8c-3.1-5.2-3.9-6.3-6.9-6.3h-2.8l-0.1 12.3h4.1v3.1h-12.1v-3.1h3.8l0.2-28.6h-4zm8.1 16.3h4.2c4.4 0 7.8-1.9 7.8-6.9 0-5.1-3.6-6.2-8.2-6.2h-3.7zm27.9-13.1h-4v-3.2h23.5v8.1h-3.7v-4.9h-11.5l-0.1 12.2h10.9v3.1h-10.9l-0.1 13.2h12l0.3-5.4h3.7l-0.3 8.5h-23.8v-3.1h3.8zm28.6 0h-3.9v-3.2h12v3.2h-3.8l-0.2 28.5h4v3.1h-12v-3.1h3.7zm16.5 0h-4.6v-3.2h8.3l18.9 25.5c0.6 0.8 1.1 1.7 1.6 2.6h0.1l0.2-24.9h-4.3v-3.2h11.7v3.2h-3.7l-0.2 31.6h-3.5l-19.7-26.1q-0.7-1.1-1.3-2.2h-0.1l-0.2 25.2h4.3v3.1h-11.5v-3.1h3.8zm36.7 22.8h4.1v4.7c1.5 1 4.6 1.3 6.8 1.3 4.9 0 8.2-2.3 8.2-6.4 0-9.3-19.1-3.8-19.1-16.3 0-4.2 2.5-9.8 12.9-9.8 2.5 0 7.1 0.6 9.3 1.6v7h-3.8v-4.3c-1.3-0.6-4.2-1-5.9-1-3.7 0-7.9 1.5-7.9 6 0 8.9 19.1 3.4 19.1 16.2 0 7.6-6.6 10.4-13.3 10.4-5.7 0-8.5-1.3-10.4-1.7zm32.3-22.9h-4v-3.1h12v3.1h-3.8l-0.1 12.8h18.1l0.1-12.8h-4v-3.1h12.1v3.1h-3.8l-0.2 28.5h4v3.2h-12.1v-3.2h3.8l0.1-12.6h-18.1l-0.1 12.6h4v3.2h-12v-3.2h3.8zm33 28.5h3.2l12.9-31.6h4.6l11.7 31.6h3.3v3.2h-11.7v-3.2h3.7l-3.7-10.5h-12.6l-4.1 10.5h4.2v3.2h-11.5zm22.9-13.7l-4.2-11.6c-0.4-1.2-0.5-1.7-0.7-2.4h-0.1c-0.1 0.7-0.3 1.2-0.7 2.4l-4.6 11.6zm42.7 15.9c-2.1 0.9-6.8 1.5-10 1.5-11.4 0-18.6-5.8-18.6-17.7 0-9.8 5.6-18.3 18.5-18.3 4.6 0 9.1 1.2 10.6 1.9v7.8h-3.7v-5.1c-1.2-0.6-3.9-1.2-7.2-1.2-8.4 0-13.6 5-13.6 14.4 0 9.4 4.8 14.8 14.3 14.8 1.3 0 3.9-0.2 5.8-0.7v-8.5h-4.3v-3.2h12v3.2h-3.8zm10.9-30.8h-4v-3.1h23.5v8h-3.7v-4.9h-11.6v12.2h10.9v3.1h-10.9l-0.1 13.2h12l0.3-5.4h3.7l-0.3 8.5h-23.8v-3.1h3.8zm28.5 0h-4.6v-3.1h8.3l18.9 25.4c0.6 0.8 1.1 1.7 1.6 2.6h0.1l0.2-24.9h-4.3v-3.1h11.7v3.1h-3.7l-0.2 31.6h-3.5l-19.7-26.1q-0.7-1.1-1.3-2.2h-0.1l-0.2 25.2h4.3v3.1h-11.5v-3.1h3.8zm49.3-3.1h12v3.1h-3.7l-0.2 22.1c-0.1 10-3.2 14.5-11.7 18.6l-1.3-3.2c6.4-3 8.7-8.5 8.8-15.3l0.2-22.2h-4.1zm32.4-0.6c10.9 0 16.4 7.9 16.4 17.4 0 10.7-5.8 18.6-16.4 18.6-10.9 0-16.4-7.9-16.4-17.4 0-10.7 5.8-18.6 16.4-18.6zm0 32.6c8.4 0 11.8-7 11.8-14.6 0-7.6-3.4-14.6-11.8-14.6-8.4 0-11.8 7-11.8 14.6 0 7.6 3.4 14.6 11.8 14.6zm25-28.9h-4v-3.1h12v3.1h-3.7l-0.1 12.8h18l0.1-12.8h-3.9v-3.1h12v3.1h-3.8l-0.2 28.5h4v3.2h-12v-3.2h3.7l0.1-12.6h-18l-0.1 12.6h3.9v3.2h-12v-3.2h3.8zm51.4-3.7c10.9 0 16.4 7.9 16.4 17.4 0 10.7-5.8 18.6-16.4 18.6-10.9 0-16.4-7.9-16.4-17.4 0-10.7 5.8-18.6 16.4-18.6zm0 32.6c8.4 0 11.8-7 11.8-14.6 0-7.6-3.4-14.6-11.8-14.6-8.4 0-11.8 7-11.8 14.6 0 7.6 3.4 14.6 11.8 14.6z"/>
	</g>
</svg>